Extraordinary Measures (2010)(DVDrip)(DD5.1)Eng.Sub

Sub are Srt-File and idx-sub

Don't hope for a miracle. Make one. 


PLOT

A drama centered on the efforts of John and Aileen Crowley to find a researcher 
who might have a cure for their two children's rare genetic disorder.


General

Format                           : DivX
Format/Info                      : Hack of AVI
File size                        : 2.24 GiB
Duration                         : 1h 46mn
Overall bit rate                 : 3 016 Kbps

Video
ID                               : 0
Format                           : MPEG-4 Visual
Format profile                   : AdvancedSimple@L5
Format settings, BVOP            : Yes
Format settings, QPel            : No
Format settings, GMC             : No warppoints
Format settings, Matrix          : Custom
Muxing mode                      : Packed bitstream
Codec ID                         : DX50
Codec ID/Hint                    : DivX 5
Duration                         : 1h 46mn
Bit rate                         : 2 559 Kbps
Width                            : 720 pixels
Height                           : 400 pixels
Display aspect ratio             : 16:9
Frame rate                       : 23.976 fps
Resolution                       : 24 bits
Colorimetry                      : 4:2:0
Scan type                        : Progressive
Bits/(Pixel*Frame)               : 0.371
Stream size                      : 1.90 GiB (85%)
Title                            : Video 
Writing library                  : XviD 1.2.1 (UTC 2008-12-04)

Audio
ID                               : 1
Format                           : AC-3
Format/Info                      : Audio Coding 3
Codec ID                         : 2000
Duration                         : 1h 46mn
Bit rate mode                    : Constant
Bit rate                         : 448 Kbps
Channel(s)                       : 6 channels
Channel positions                : Front: L C R, Surround: L R, LFE
Sampling rate                    : 48.0 KHz
Stream size                      : 341 MiB (15%)
Alignment                        : Split accross interleaves
Interleave, duration             : 42 ms (1.00 video frame)
Interleave, preload duration     : 500 ms
Title                            : Audio 

Verenigde Staten
Drama
105 minuten

geregisseerd door Tom Vaughan
met Harrison Ford, Brendan Fraser en Keri Russell

John Crowley (Brendan Fraser) heeft het allemaal: een eigen bedrijf, een prachtige vrouw (Keri Russel) en drie prachtige kinderen. Maar dan wordt er bij zijn twee jongste kinderen Megan en Patrick een ziekte vastgesteld. Samen met de wetenschapper Dr. Robert Stonehill (Harrison Ford) en zijn vrouw Alieen begint hij een race tegen de klok, om de ziekte tegen te gaan.

Vanaf 13 mei in de bioscoop

MM:    http://www.moviemeter.nl/film/60781

IMDB:    http://www.imdb.com/title/tt1244659/